<svg width="222" height="196" viewBox="0 0 222 196" fill="none" xmlns="http://www.w3.org/2000/svg">
<path d="M10.5008 117.5V129L92.0008 116L90.0008 111.5L10.5008 117.5Z" fill="#2690FF"/>
<path d="M4.90472 88.1875L0.195312 100.259L41.7609 105.712L43.7845 96.3843L4.90472 88.1875Z" fill="#2690FF"/>
<path d="M95.593 189.567L106.223 191.346L114.08 136.563L105.754 137.244L95.593 189.567Z" fill="#2690FF"/>
<path d="M68.5882 188.743L78.0432 193.915L103.464 144.756L95.3764 142.663L68.5882 188.743Z" fill="#2690FF"/>
<path d="M38.3142 187.762L46.1554 195.155L83.1199 154.037L75.8258 149.968L38.3142 187.762Z" fill="#2690FF"/>
<path d="M49.1631 155.131L55.7815 163.636L98.5991 128.654L92.013 123.517L49.1631 155.131Z" fill="#2690FF"/>
<path d="M39.858 136.185L44.0288 146.122L94.489 123.52L89.4708 116.844L39.858 136.185Z" fill="#2690FF"/>
<path d="M48.3489 76.5069L44.9556 85.5936L90.5683 100.593L91.4474 93.1692L48.3489 76.5069Z" fill="#2690FF"/>
<path d="M63.1407 23.1418L55.3105 28.906L86.1131 69.5573L90.8937 63.6971L63.1407 23.1418Z" fill="#2690FF"/>
<path d="M88.3266 7.35293L77.8207 8.66419L90.4503 36.8841L97.9255 34.8497L88.3266 7.35293Z" fill="#2690FF"/>
<path d="M121.285 35.2337L110.658 34.5318L113.677 77.035L121.599 75.9944L121.285 35.2337Z" fill="#2690FF"/>
<path d="M147.893 2.11722L137.285 0.0629883L124.501 60.7603H131.796L147.893 2.11722Z" fill="#2690FF"/>
<path d="M161.501 30L155.022 22.8474L127.771 78.5696L134.844 80.3551L161.501 30Z" fill="#2690FF"/>
<path d="M183.001 41L177.603 29.2738L134.589 84.5416L139.932 86.7023L183.001 41Z" fill="#2690FF"/>
<path d="M203.501 49.0001L198.381 41.0017L151.498 78.0011L157.499 82.5011L203.501 49.0001Z" fill="#2690FF"/>
<path d="M200.575 78.8672L197.75 69.8002L142.757 93.0952L147.355 99.021L200.575 78.8672Z" fill="#2690FF"/>
<path d="M142.988 190.202L152.033 187.307L128.316 132.494L122.426 137.138L142.988 190.202Z" fill="#2690FF"/>
<path d="M222.001 96.522L222.002 84.4999L161.529 96.522L165.048 105.226L222.001 96.522Z" fill="#2690FF"/>
<path d="M160.805 176.481L170.632 171.968L139.484 129.915L133.61 135.892L160.805 176.481Z" fill="#2690FF"/>
<path d="M194.681 143.999L200.272 135.592L149.308 113.915L147.9 121.752L194.681 143.999Z" fill="#2690FF"/>
<path d="M184.175 162.591L192.918 154.556L149.001 129L146.835 134.395L184.175 162.591Z" fill="#2690FF"/>
<path d="M216.213 121.593L221.163 110.638L192.736 110.455L190.519 119.034L216.213 121.593Z" fill="#2690FF"/>
<path d="M53.4692 52.822L48.0722 60.9848L95.2489 95.1401L97.5848 87.7068L53.4692 52.822Z" fill="#2690FF"/>
<path d="M152.001 108C152.001 125.673 137.674 140 120.001 140C102.328 140 88.0008 125.673 88.0008 108C88.0008 90.3269 102.328 76 120.001 76C137.674 76 152.001 90.3269 152.001 108Z" fill="#2690FF"/>
</svg>
