<svg width="268" height="256" viewBox="0 0 268 256" fill="none" xmlns="http://www.w3.org/2000/svg">
<path d="M174.401 131.707C174.401 152.282 157.657 168.961 137.004 168.961C116.35 168.961 99.6066 152.282 99.6066 131.707C99.6066 111.132 116.35 94.4528 137.004 94.4528C157.657 94.4528 174.401 111.132 174.401 131.707Z" fill="#2690FF"/>
<path d="M120.964 157.879L126.965 161.564L79.8613 256L69.1635 249.644L120.964 157.879Z" fill="#2690FF"/>
<path d="M154.621 161.113L161.741 157.418L213.216 223.923L200.707 230.576L154.621 161.113Z" fill="#2690FF"/>
<path d="M170.203 146.976L173.995 139.927L254.136 165.98L247.564 178.497L170.203 146.976Z" fill="#2690FF"/>
<path d="M170.311 130.977L169.938 122.562L267.174 103.686L268 118.542L170.311 130.977Z" fill="#2690FF"/>
<path d="M166.833 113.671L162.954 107.745L244.755 42.7547L251.76 53.1259L166.833 113.671Z" fill="#2690FF"/>
<path d="M156.543 102.407L150.419 98.8258L194.552 4.32027L205.463 10.4926L156.543 102.407Z" fill="#2690FF"/>
<path d="M140.689 104.542L133.599 104.149L129.444 0L141.981 0.516153L140.689 104.542Z" fill="#2690FF"/>
<path d="M124.709 105.546L118.488 109.135L61.0977 32.8302L72.0055 26.3475L124.709 105.546Z" fill="#2690FF"/>
<path d="M110.537 116.451L107.515 122.95L13.9123 91.7747L19.0967 80.2217L110.537 116.451Z" fill="#2690FF"/>
<path d="M105.998 149.643L109.854 155.521L25.312 221.778L18.3435 211.492L105.998 149.643Z" fill="#2690FF"/>
<path d="M70.9857 139.669L70.923 146.684L0.011422 159.156L0 146.767L70.9857 139.669Z" fill="#2690FF"/>
<path d="M92.3016 146.638L93.5256 153.543L46.5562 176.552L44.3097 164.375L92.3016 146.638Z" fill="#2690FF"/>
<path d="M102.122 124.318L99.9977 131.003L46.5032 129.294L50.1686 117.463L102.122 124.318Z" fill="#2690FF"/>
<path d="M115.364 110.2L109.87 114.584L66.3408 83.5618L75.9855 75.7524L115.364 110.2Z" fill="#2690FF"/>
<path d="M143.017 163.502L149.951 162.296L173.097 210.37L160.868 212.586L143.017 163.502Z" fill="#2690FF"/>
<path d="M170.11 138.514L172.278 131.843L225.76 133.906L222.016 145.712L170.11 138.514Z" fill="#2690FF"/>
<path d="M112.047 157.171L116.208 162.828L77.9584 208.177L70.531 198.247L112.047 157.171Z" fill="#2690FF"/>
<path d="M125.407 164.704L131.959 167.269L123.977 225.964L112.37 221.529L125.407 164.704Z" fill="#2690FF"/>
<path d="M171.733 121.174L170.567 114.258L222.611 91.1265L224.763 103.322L171.733 121.174Z" fill="#2690FF"/>
<path d="M161.022 152.313L166.358 147.741L210.949 177.23L201.584 185.371L161.022 152.313Z" fill="#2690FF"/>
<path d="M130.812 97.7519L123.81 98.4668L104.127 48.8855L116.482 47.5352L130.812 97.7519Z" fill="#2690FF"/>
<path d="M148.784 98.0019L142.384 95.082L152.071 39.7495L163.411 44.8201L148.784 98.0019Z" fill="#2690FF"/>
<path d="M163.582 106.534L159.452 101.263L195.968 56.0041L203.338 65.252L163.582 106.534Z" fill="#2690FF"/>
</svg>
